<svg xmlns="http://www.w3.org/2000/svg" width="853" height="1844" viewBox="0 0 853 1844"><defs><linearGradient id="bg" x1="0" y1="0" x2="1" y2="1"><stop stop-color="#050719"/><stop offset="1" stop-color="#0B0A2A"/></linearGradient><radialGradient id="glow"><stop stop-color="#38207A" stop-opacity=".72"/><stop offset="1" stop-color="#08091F" stop-opacity="0"/></radialGradient><filter id="shadow"><feGaussianBlur stdDeviation="16"/></filter></defs><rect width="853" height="1844" rx="46" fill="url(#bg)"/><ellipse cx="700" cy="270" rx="360" ry="300" fill="url(#glow)"/><circle cx="40" cy="100" r="1" fill="#27A6FF" opacity=".28"/><circle cx="137" cy="237" r="2" fill="#965CFF" opacity=".28"/><circle cx="234" cy="374" r="3" fill="#27A6FF" opacity=".28"/><circle cx="331" cy="511" r="1" fill="#965CFF" opacity=".28"/><circle cx="428" cy="648" r="2" fill="#27A6FF" opacity=".28"/><circle cx="525" cy="785" r="3" fill="#965CFF" opacity=".28"/><circle cx="622" cy="922" r="1" fill="#27A6FF" opacity=".28"/><circle cx="719" cy="1059" r="2" fill="#965CFF" opacity=".28"/><circle cx="816" cy="1196" r="3" fill="#27A6FF" opacity=".28"/><circle cx="123" cy="1333" r="1" fill="#965CFF" opacity=".28"/><circle cx="220" cy="1470" r="2" fill="#27A6FF" opacity=".28"/><circle cx="317" cy="1607" r="3" fill="#965CFF" opacity=".28"/><circle cx="414" cy="194" r="1" fill="#27A6FF" opacity=".28"/><circle cx="511" cy="331" r="2" fill="#965CFF" opacity=".28"/><circle cx="608" cy="468" r="3" fill="#27A6FF" opacity=".28"/><circle cx="705" cy="605" r="1" fill="#965CFF" opacity=".28"/><circle cx="802" cy="742" r="2" fill="#27A6FF" opacity=".28"/><circle cx="109" cy="879" r="3" fill="#965CFF" opacity=".28"/><circle cx="206" cy="1016" r="1" fill="#27A6FF" opacity=".28"/><circle cx="303" cy="1153" r="2" fill="#965CFF" opacity=".28"/><circle cx="400" cy="1290" r="3" fill="#27A6FF" opacity=".28"/><circle cx="497" cy="1427" r="1" fill="#965CFF" opacity=".28"/><circle cx="594" cy="1564" r="2" fill="#27A6FF" opacity=".28"/><circle cx="691" cy="151" r="3" fill="#965CFF" opacity=".28"/><text x="42" y="55" font-family="DejaVu Sans,Arial,sans-serif" font-size="26" font-weight="800" fill="#FFFFFF" text-anchor="start">9:41</text><text x="807" y="55" font-family="DejaVu Sans,Arial,sans-serif" font-size="18" font-weight="700" fill="#FFFFFF" text-anchor="end">▮▮▮  ◉  ▰</text><rect x="32" y="92" width="58" height="58" rx="29" fill="#171440" stroke="#7145C6" stroke-width="2" /><text x="61" y="133" font-family="DejaVu Sans,Arial,sans-serif" font-size="46" font-weight="400" fill="#FFFFFF" text-anchor="middle">‹</text><text x="118" y="132" font-family="DejaVu Sans,Arial,sans-serif" font-size="42" font-weight="900" fill="#FFFFFF" text-anchor="start">Cycle Privacy</text><text x="42" y="205" font-family="DejaVu Sans,Arial,sans-serif" font-size="23" font-weight="500" fill="#B9B7D1" text-anchor="start">Your sensitive wellness data stays under your control.</text><rect x="42" y="260" width="769" height="365" rx="30" fill="#171440" stroke="#7145C6" stroke-width="2" /><text x="78" y="320" font-family="DejaVu Sans,Arial,sans-serif" font-size="24" font-weight="800" fill="#FFFFFF" text-anchor="start">Cycle-aware suggestions</text><text x="78" y="353" font-family="DejaVu Sans,Arial,sans-serif" font-size="18" font-weight="500" fill="#B9B7D1" text-anchor="start">Use records to adapt daily plans</text><rect x="700" y="309" width="74" height="42" rx="21" fill="#965CFF" stroke="#965CFF" stroke-width="0" /><circle cx="752" cy="330" r="17" fill="#fff"/><line x1="70" y1="381" x2="783" y2="381" stroke="#3B3761" stroke-width="1"/><text x="78" y="432" font-family="DejaVu Sans,Arial,sans-serif" font-size="24" font-weight="800" fill="#FFFFFF" text-anchor="start">Period reminders</text><text x="78" y="465" font-family="DejaVu Sans,Arial,sans-serif" font-size="18" font-weight="500" fill="#B9B7D1" text-anchor="start">Private notification wording</text><rect x="700" y="421" width="74" height="42" rx="21" fill="#965CFF" stroke="#965CFF" stroke-width="0" /><circle cx="752" cy="442" r="17" fill="#fff"/><line x1="70" y1="493" x2="783" y2="493" stroke="#3B3761" stroke-width="1"/><text x="78" y="544" font-family="DejaVu Sans,Arial,sans-serif" font-size="24" font-weight="800" fill="#FFFFFF" text-anchor="start">AI memory</text><text x="78" y="577" font-family="DejaVu Sans,Arial,sans-serif" font-size="18" font-weight="500" fill="#B9B7D1" text-anchor="start">Let the Brain remember patterns</text><rect x="700" y="533" width="74" height="42" rx="21" fill="#343257" stroke="#494568" stroke-width="0" /><circle cx="722" cy="554" r="17" fill="#fff"/>
  <text x="42" y="700" font-family="DejaVu Sans,Arial,sans-serif" font-size="28" font-weight="900" fill="#FFFFFF" text-anchor="start">Your controls</text><rect x="42" y="740" width="769" height="405" rx="30" fill="#171440" stroke="#7145C6" stroke-width="2" /><text x="82" y="803" font-family="DejaVu Sans,Arial,sans-serif" font-size="24" font-weight="700" fill="#FFFFFF" text-anchor="start">Export cycle data</text><text x="774" y="803" font-family="DejaVu Sans,Arial,sans-serif" font-size="35" font-weight="500" fill="#B597FF" text-anchor="end">›</text><line x1="70" y1="840" x2="783" y2="840" stroke="#3B3761" stroke-width="1"/><text x="82" y="903" font-family="DejaVu Sans,Arial,sans-serif" font-size="24" font-weight="700" fill="#FFFFFF" text-anchor="start">Edit cycle basics</text><text x="774" y="903" font-family="DejaVu Sans,Arial,sans-serif" font-size="35" font-weight="500" fill="#B597FF" text-anchor="end">›</text><line x1="70" y1="940" x2="783" y2="940" stroke="#3B3761" stroke-width="1"/><text x="82" y="1003" font-family="DejaVu Sans,Arial,sans-serif" font-size="24" font-weight="700" fill="#FFFFFF" text-anchor="start">Review AI memories</text><text x="774" y="1003" font-family="DejaVu Sans,Arial,sans-serif" font-size="35" font-weight="500" fill="#B597FF" text-anchor="end">›</text><line x1="70" y1="1040" x2="783" y2="1040" stroke="#3B3761" stroke-width="1"/><text x="82" y="1103" font-family="DejaVu Sans,Arial,sans-serif" font-size="24" font-weight="700" fill="#FFFFFF" text-anchor="start">Notification privacy</text><text x="774" y="1103" font-family="DejaVu Sans,Arial,sans-serif" font-size="35" font-weight="500" fill="#B597FF" text-anchor="end">›</text>
  <rect x="42" y="1210" width="769" height="155" rx="26" fill="#20122D" stroke="#7A3154" stroke-width="2" /><text x="82" y="1265" font-family="DejaVu Sans,Arial,sans-serif" font-size="25" font-weight="850" fill="#FF6680" text-anchor="start">Delete all cycle data</text><text x="82" y="1305" font-family="DejaVu Sans,Arial,sans-serif" font-size="18" font-weight="500" fill="#B9B7D1" text-anchor="start">Permanently remove logs, notes, predictions</text><text x="82" y="1333" font-family="DejaVu Sans,Arial,sans-serif" font-size="18" font-weight="500" fill="#B9B7D1" text-anchor="start">and derived cycle memories.</text>
  <rect x="42" y="1410" width="769" height="120" rx="24" fill="#0C2240" stroke="#227FB6" stroke-width="2" /><text x="78" y="1462" font-family="DejaVu Sans,Arial,sans-serif" font-size="18" font-weight="500" fill="#B9B7D1" text-anchor="start">Cycle estimates support wellness planning only.</text><text x="78" y="1490" font-family="DejaVu Sans,Arial,sans-serif" font-size="18" font-weight="500" fill="#B9B7D1" text-anchor="start">They are not contraception or medical advice.</text><rect x="0" y="1709" width="853" height="135" rx="0" fill="#090A25" stroke="#332B60" stroke-width="2" /><text x="86" y="1762" font-family="DejaVu Sans,Arial,sans-serif" font-size="40" font-weight="500" fill="#FFFFFF" text-anchor="middle">⌂</text><text x="86" y="1802" font-family="DejaVu Sans,Arial,sans-serif" font-size="18" font-weight="600" fill="#FFFFFF" text-anchor="middle">Home</text><text x="256" y="1762" font-family="DejaVu Sans,Arial,sans-serif" font-size="40" font-weight="500" fill="#FFFFFF" text-anchor="middle">▣</text><text x="256" y="1802" font-family="DejaVu Sans,Arial,sans-serif" font-size="18" font-weight="600" fill="#FFFFFF" text-anchor="middle">Plan</text><text x="426" y="1762" font-family="DejaVu Sans,Arial,sans-serif" font-size="40" font-weight="500" fill="#FFFFFF" text-anchor="middle">◌</text><text x="426" y="1802" font-family="DejaVu Sans,Arial,sans-serif" font-size="18" font-weight="600" fill="#FFFFFF" text-anchor="middle">Coach</text><text x="596" y="1762" font-family="DejaVu Sans,Arial,sans-serif" font-size="40" font-weight="500" fill="#FFFFFF" text-anchor="middle">▥</text><text x="596" y="1802" font-family="DejaVu Sans,Arial,sans-serif" font-size="18" font-weight="600" fill="#FFFFFF" text-anchor="middle">Progress</text><rect x="712" y="1721" width="108" height="88" rx="25" fill="#35206C" stroke="none" stroke-width="0" /><text x="766" y="1762" font-family="DejaVu Sans,Arial,sans-serif" font-size="40" font-weight="500" fill="#965CFF" text-anchor="middle">♙</text><text x="766" y="1802" font-family="DejaVu Sans,Arial,sans-serif" font-size="18" font-weight="600" fill="#B597FF" text-anchor="middle">Profile</text><rect x="288" y="1824" width="277" height="8" rx="4" fill="#fff"/></svg>